<svg width="96" height="96" viewBox="0 0 96 96" fill="none" xmlns="http://www.w3.org/2000/svg">
<rect width="96" height="96" fill="white"/>
<path d="M46.5795 46.4285C48.2751 45.5705 50.8481 44.5612 52.2923 44.1895C54.1341 43.7124 56.5564 43.561 60.4045 43.6803C64.111 43.795 66.7754 44.1345 68.631 44.7217C70.1391 45.2035 72.6362 44.8806 73.5 45.5C74.414 46.1561 75.9013 48.6695 76.5 50C77.0713 51.2617 79.7038 55.735 79 57C79.3885 58.8306 79 61.7932 79 64C79.0046 66.2068 78.3885 68.986 78 70.5C77.6115 72.014 76.9753 74.4906 76.5 75.5C76.0201 76.5094 74.5192 78.1741 73.5 79.5C72.4808 80.8259 71.1492 81.2695 71.1583 81.4576C71.1674 81.6457 70.6053 82.2559 69.9015 82.8156C69.2022 83.3708 67.9088 84.3572 67.0314 85.0087C66.1493 85.6556 64.3532 86.5961 63.0324 87.0916C61.3597 87.7202 59.4905 87.9954 56.8626 88C53.4852 88 52.7493 87.8349 49.7787 86.3942C47.8089 85.4353 45.5375 83.8525 44.1801 82.4899C42.2515 80.5538 41.7533 80.2693 40.981 80.6547C40.4782 80.907 39.9618 81.3199 39.8384 81.5723C39.7104 81.8246 38.5313 82.5862 37.2105 83.2652C35.2544 84.27 34.1759 84.504 31.3834 84.5178C28.751 84.5361 27.4256 84.2975 25.6706 83.4901C24.4138 82.9166 22.6954 81.7833 21.8499 80.9758C21.0044 80.1684 19.8527 78.7874 19.286 77.9019C18.7239 77.0164 17.9241 75.1078 17.5082 73.658C17.0969 72.2082 16.7632 70.864 16.7678 70.6759C16.7724 70.4878 17.202 71.2585 17.723 72.3964C18.2394 73.5342 19.19 75.0803 19.8344 75.8373C20.4788 76.5943 21.7448 77.7597 22.6497 78.4249C23.5592 79.0948 25.4284 79.9711 26.8132 80.3794C28.1934 80.7877 30.9278 80.5046 32.5 80.5C34.1956 80.4954 35.7846 80.2538 37.2105 79.7216C38.5313 79.2306 40.2497 78.8975 40.7525 78.3745C41.6482 77.4477 41.6848 77.4477 42.5805 78.2919C43.0833 78.7644 44.4178 79.682 45.5512 80.3244C46.6801 80.9667 48.7367 81.8246 50.1215 82.2238C51.5017 82.6275 53.9193 82.9578 55.4915 82.9533C57.1962 82.9487 59.3168 82.5862 60.7473 82.0494C62.0681 81.5585 63.6585 80.6226 64.2892 79.9803C65.0479 79.2003 65.3016 79.3028 65 79C64.6984 78.6972 63.8482 79.0136 62.5 80C60.4845 81.4681 60.4822 82.0494 55.4915 82.0494C50.6059 82.0494 50.0209 81.5507 47 80C44.9754 78.9631 42.7862 77.1333 41.3146 75.5C40.0623 74.1144 38.5987 71.6975 38 70.5C37.4059 69.3025 36.3976 67.2021 36 65.5C35.5293 63.4859 35.3035 60.9911 35.5 59.5C35.6645 58.2383 36.2688 55.8856 37 54.5C37.7312 53.1144 40.1126 51.4385 41.3146 50.2135C42.512 48.9931 44.884 47.291 46.5795 46.4285Z" fill="#F6B49A"/>
<path d="M16.1782 65.9732C16.0777 66.8587 16 66.0328 16 64.138C16 62.2478 16.0777 61.5229 16.1782 62.5322C16.2742 63.5416 16.2742 65.0877 16.1782 65.9732Z" fill="#F6B49A"/>
<path d="M48.3356 37.621C49.8747 36.7567 51.8434 35.3235 53 35C54.1566 34.6765 56.8351 34.4168 58.5 34.5C60.8319 34.6155 62.1681 34.8076 64.5 36C66.1649 36.855 69.3667 38.84 70.5 40C71.6379 41.16 72.7818 43.3584 73.5 44.5C74.2182 45.6462 74.1027 46.698 73.9814 46.7627C73.8555 46.8274 72.8621 46.4669 71.7708 45.9585C70.6795 45.4548 68.3197 44.7338 66.5241 44.3502C64.7286 43.9712 61.478 43.6569 59.2954 43.6569C57.1128 43.6569 54.0207 43.9666 52.4164 44.3409C50.8121 44.7199 48.0838 45.7367 46.3536 46.6009C44.6233 47.4606 42.2635 49.1198 41.1069 50.2798C39.9503 51.4399 38.3273 53.5936 37.4972 55.0633C36.5971 56.6624 35.9908 57.3649 36.0001 56.8149C36.0048 56.3065 36.2706 54.6427 36.5924 53.1175C36.9142 51.5924 37.8469 49.3046 38.6631 48.0337C39.4839 46.7627 40.1555 45.5657 40.1648 45.3762C40.1695 45.1867 40.9949 44.1468 42.0023 43.0653C43.0097 41.9839 44.2176 40.6713 44.6839 40.149C45.155 39.6222 46.7966 38.4852 48.3356 37.621Z" fill="#DD2D68"/>
<path d="M40.1545 11.7624C40.3907 11.1327 40.9095 10.2502 41.3124 9.80897C41.7153 9.36773 42.6925 9.00003 43.4845 9.00003C44.2719 8.99544 45.9623 9.49643 47.236 10.1123C48.5096 10.7282 50.4548 12.2312 51.5571 13.4538C52.6593 14.6718 54.0673 16.7539 54.6833 18.0822C55.2992 19.4106 55.9615 21.6627 56.4988 25.6753L60.8986 27.1277C63.3208 27.9228 66.6091 29.2925 68.2116 30.1658C69.8141 31.0391 71.1155 32.0135 71.1062 32.3306C71.097 32.6478 70.8793 32.9052 70.6246 32.9052C70.3698 32.9052 68.86 32.1928 67.2668 31.3241C65.6736 30.4554 62.7049 29.2098 60.667 28.5571C58.6292 27.9044 56.8044 27.3759 56.6146 27.3805C56.4247 27.3851 55.9662 28.3733 55.5956 29.5729C55.2251 30.7725 54.5906 32.0687 54.1877 32.4455C53.7801 32.8224 53.4559 33.2361 53.4698 33.3648C53.4791 33.4935 55.415 33.5946 57.7724 33.5946C61.7508 33.5946 62.2834 33.7095 65.2568 35.2033C67.5123 36.334 69.2953 37.7129 71.2776 39.8593C72.8291 41.5324 74.8669 44.3269 75.8025 46.0643C76.7426 47.8017 78.0626 51.0834 78.7342 53.3585C79.716 56.6724 79.9707 58.5017 79.9985 62.551C80.0217 65.8971 79.7716 68.5813 79.2668 70.4796C78.8453 72.0607 77.9978 74.3359 77.3864 75.5355C76.7797 76.7351 75.3717 78.7115 74.2602 79.9295C72.931 81.3911 72.0881 81.9886 71.7824 81.6899C71.4767 81.3865 71.963 80.4902 73.2367 79.0194C74.2926 77.7968 75.5755 75.9721 76.085 74.9609C76.5991 73.9498 77.3725 71.7757 77.8032 70.1349C78.4099 67.8367 78.5443 65.8695 78.3868 61.6318C78.2247 57.2653 77.9237 55.3487 76.9464 52.4393C76.2656 50.4169 75.3486 48.3394 74.904 47.8246C74.4594 47.3099 74.0333 46.5836 73.9545 46.2159C73.8758 45.8482 73.3386 44.8233 72.7596 43.9362C72.1807 43.0491 70.7867 41.3853 69.6612 40.2316C68.5358 39.0779 66.2618 37.4233 64.6037 36.5546C61.848 35.1068 61.2552 34.9735 57.6149 34.9735C53.8867 34.9735 53.405 35.0884 49.9916 36.812C47.9862 37.8232 45.9206 39.0825 45.4019 39.6157C44.8832 40.1443 43.5725 41.5415 42.4888 42.7182C41.405 43.8948 40.5204 44.9612 40.5204 45.0853C40.5204 45.2094 39.8118 46.5055 38.9504 47.9579C38.0334 49.4931 37.1765 51.7544 36.894 53.3585C36.63 54.8753 36.2781 57.3573 36.1113 58.874C35.9492 60.3908 36.0419 62.8728 36.3244 64.3895C36.6069 65.9063 37.51 68.5676 38.3298 70.3049C39.3302 72.4192 40.6686 74.2577 42.373 75.8664C43.7717 77.1855 46.0133 78.8172 47.3517 79.4883C48.6902 80.1593 50.9828 80.8993 52.4463 81.1383C53.9098 81.3773 55.7346 81.4784 56.4988 81.3681C57.263 81.2578 58.62 81.0418 59.5092 80.8855C60.403 80.7338 61.8619 80.1088 62.7512 79.5066C63.645 78.8999 64.6315 78.4035 64.9511 78.4081C65.2706 78.4081 65.53 78.615 65.53 78.8678C65.53 79.1206 64.9048 79.8422 64.1406 80.4765C63.3764 81.1061 61.6582 81.9381 60.3197 82.3196C58.9812 82.701 56.6377 83.009 55.1094 82.9998C53.4559 82.9906 51.1078 82.5632 49.3201 81.9473C47.6667 81.3773 45.2167 80.1409 43.8782 79.1987C41.456 77.4981 41.4421 77.4935 40.6362 78.4219C40.1916 78.9367 38.8902 79.6629 37.7416 80.0398C36.593 80.4167 34.6154 80.8488 33.3417 81.0004C32.0681 81.1475 29.7756 81.0188 28.2472 80.7063C26.7188 80.3937 24.6856 79.7503 23.7316 79.2722C22.7775 78.7988 21.2352 77.6314 20.309 76.6845C19.3827 75.7377 18.0952 73.8211 17.4468 72.433C16.5066 70.4152 16.2287 68.9766 16.0666 65.3088C15.8906 61.2181 16.0064 60.3081 17.1179 57.0355C17.8034 55.0132 19.341 51.9245 20.5266 50.1733C21.7169 48.4176 23.8381 45.9815 25.2368 44.7589C26.6355 43.5317 29.3495 41.73 31.2576 40.751C33.1704 39.772 36.1901 38.5356 37.9731 37.9978C39.7562 37.4601 42.5721 36.8901 44.2255 36.7293C46.0966 36.55 47.8473 36.0582 48.857 35.4331C49.7508 34.877 51.1912 33.6176 52.0619 32.6294C52.9326 31.6458 53.9237 30.1658 54.2618 29.3431C54.5999 28.5203 54.8824 27.693 54.887 27.5046C54.8917 27.3161 53.6921 26.7692 52.224 26.2912C50.7558 25.8177 48.718 24.9123 47.6991 24.2826C46.6802 23.6575 45.263 22.6004 44.5451 21.9339C43.8272 21.2674 42.6416 19.792 41.9098 18.6568C41.1734 17.5215 40.3861 15.7611 40.1545 14.75C39.8998 13.6423 39.8998 12.4564 40.1545 11.7624Z" fill="#60423B"/>
<path d="M40.6 58.224C40.9061 57.3182 41.5183 55.9994 41.9568 55.2907C42.4 54.582 42.8477 54 42.9482 54C43.0533 54 43.0259 55.7412 42.8888 57.872C42.7015 60.6739 42.4274 61.9036 41.8883 62.3213C41.299 62.7812 41.0203 62.7812 40.5543 62.3213C40.2253 62.0021 39.9786 61.3216 40.0015 60.8053C40.0243 60.2891 40.2939 59.1298 40.6 58.224Z" fill="white"/>
<path d="M73.1194 63.2693C73.4895 61.6548 73.8184 59.111 73.8504 57.6092C73.8778 56.112 74.0377 54.9762 74.1976 55.0935C74.3621 55.2062 74.659 56.647 74.8646 58.2897C75.0839 60.0826 75.0337 62.8657 74.7367 65.264C74.4626 67.4605 73.8184 70.2014 73.3021 71.3653C72.7859 72.5293 71.8676 73.9514 71.26 74.5333C70.6523 75.1153 69.6929 75.7207 69.1264 75.8803C68.5599 76.0399 67.7376 76.0399 67.299 75.8803C66.8604 75.7207 66.504 75.3265 66.5132 75.0027C66.5177 74.6788 67.4726 73.36 68.6284 72.0693C69.7843 70.7787 71.1183 68.9295 71.5843 67.9627C72.0549 66.9958 72.7448 64.8838 73.1194 63.2693Z" fill="white"/>
<path d="M19.6842 53.2878C20.3822 51.9428 21.8773 49.8147 22.9951 48.5664C24.1177 47.3135 25.1789 46.2863 25.3534 46.2817C25.5326 46.2771 26.3344 46.9496 27.1456 47.7787C27.9568 48.6078 29.1595 50.2154 29.8198 51.3578C30.4849 52.5001 32.0083 56.6457 33.2157 60.5702C34.4184 64.4947 35.9418 68.8522 36.6068 70.2433C37.2671 71.6344 38.4179 73.4999 39.1584 74.3889C40.4366 75.9136 40.4649 76.0426 39.6961 76.7842C39.248 77.2126 37.9274 77.8897 36.7577 78.2904C35.5315 78.7096 33.1402 79.009 31.098 78.9998C28.32 78.9906 27.0041 78.7326 24.9666 77.8114C23.5422 77.1665 21.7689 75.9781 21.0284 75.1674C20.2926 74.3613 19.1371 72.5557 18.4674 71.1646C17.609 69.3773 17.1892 67.6132 17.043 65.1765C16.9062 62.8595 17.0949 60.7361 17.6231 58.7277C18.0523 57.0787 18.9814 54.6328 19.6842 53.2878Z" fill="#F1B896"/>
<path d="M41.4223 12.518C41.4034 12.062 41.6251 11.2836 41.9175 10.7907C42.2807 10.1781 42.9127 9.92011 45.4831 10.0214L43.8324 10.3761C42.2241 10.7216 42.2335 10.7262 44.304 10.6847C45.7614 10.6525 46.8698 10.9427 47.8413 11.6106C48.6196 12.1449 49.8081 13.1721 50.4778 13.8907C51.1523 14.6093 52.138 15.922 52.6757 16.811C53.2134 17.7 54.0057 19.6669 54.4397 21.187C54.8736 22.707 55.1047 24.2086 54.9538 24.5265C54.7415 24.9733 54.2321 24.9318 52.6757 24.333C51.5721 23.9092 49.5581 22.8728 48.1951 22.0299C46.832 21.187 45.0634 19.6162 44.2663 18.5384C43.4645 17.4605 42.507 15.8575 42.1297 14.9685C41.7571 14.0795 41.4364 12.9787 41.4223 12.518Z" fill="#A1C983"/>
<path d="M38.8101 12.3077C39.1254 12.3123 39.6327 11.7985 39.9435 11.1608C40.2543 10.523 40.5834 10 40.6793 10C40.7753 10 40.5971 10.6698 40.2863 11.4911C39.8978 12.528 39.8521 13.5373 40.1446 14.8174C40.3777 15.8267 41.278 17.7353 42.1464 19.0612C43.0147 20.3872 44.4452 22.0388 45.3273 22.7316C46.2093 23.4244 47.8043 24.4567 48.8692 25.0256C49.9341 25.5945 50.4962 26.0625 50.1215 26.0625C49.7421 26.0625 48.0923 25.7 46.4516 25.255C44.8108 24.8145 42.6537 23.9199 41.6528 23.273C40.6565 22.6215 39.1666 21.0753 38.3439 19.832C37.3613 18.3455 36.8495 17.0196 36.854 15.9644C36.8586 15.0789 37.1694 13.8952 37.5487 13.3263C37.928 12.7574 38.4948 12.2986 38.8101 12.3077Z" fill="#A1C983"/>
<path d="M54.4221 18.0289C53.7137 16.5149 52.402 14.4503 51.5154 13.441L49.8975 11.6058L52.1781 13.652C53.4349 14.7761 55.0071 16.4277 55.6697 17.3224C56.3324 18.217 57.1048 19.7724 57.3836 20.7817C57.6578 21.7911 57.8863 23.3923 57.8863 24.3374C57.8909 25.3422 58.1148 26.0579 58.4256 26.0579C58.7181 26.0579 58.8735 26.1634 58.7684 26.2919C58.6632 26.4249 58.06 26.3469 57.4339 26.1267C56.465 25.7826 56.2456 25.3422 56.0034 23.25C55.8434 21.892 55.135 19.543 54.4221 18.0289Z" fill="#A1C983"/>
<path d="M35.5366 39.9552C37.5495 39.1667 39.6082 38.4157 40.1114 38.289C40.6146 38.1623 41.6943 38.0355 42.5132 38.0074C43.3321 37.9745 44 38.0543 44 38.1857C44 38.3172 43.7347 38.6833 43.4053 39.0071C43.0805 39.331 41.923 40.7531 40.8297 42.1752C39.7408 43.5927 38.0665 46.4463 37.1103 48.5114C36.1542 50.5766 35.1523 53.6414 34.8824 55.317C34.617 56.9926 34.3837 59.635 34.3197 64L32.6179 58.6025C31.68 55.6362 30.3716 52.2569 29.7037 51.0929C29.0403 49.9289 27.8692 48.3472 27.1006 47.5727C25.7694 46.2257 25.7419 46.1271 26.5059 45.287C26.9451 44.8036 28.3312 43.7335 29.5893 42.9027C30.8474 42.0767 33.5237 40.7484 35.5366 39.9552Z" fill="#E22975"/>
<path d="M20.3067 66.4176C20.1254 65.5013 19.9868 64.0105 20.001 63.0943C20.0152 62.178 20.1112 61.7554 20.2107 62.1447C20.3102 62.534 20.7971 63.9251 21.2947 65.2307C21.8065 66.579 22.0979 67.9605 21.97 68.4353C21.7887 69.1189 21.6501 69.1616 21.1952 68.6726C20.8895 68.3451 20.4915 67.3338 20.3067 66.4176Z" fill="white"/>
</svg>
