<svg width="96" height="96" viewBox="0 0 96 96" fill="none" xmlns="http://www.w3.org/2000/svg">
<g clip-path="url(#clip0_10_7)">
<path d="M46.0816 25.8955C48.4703 24.6963 52.0953 23.2855 54.13 22.7661C56.7248 22.0992 60.1373 21.8876 65.5587 22.0543C70.7805 22.2146 74.5343 22.6892 77.1485 23.51C79.2732 24.1833 82.7912 23.732 84.0082 24.5977C85.2959 25.5147 87.3912 29.0277 88.2347 30.8874C89.0395 32.6509 92.7483 38.9032 91.7568 40.6713C92.3041 43.2299 91.7568 47.3707 91.7568 50.4552C91.7632 53.5396 90.8952 57.4241 90.3479 59.5402C89.8006 61.6564 88.9043 65.118 88.2347 66.5287C87.5586 67.9395 85.444 70.2663 84.0082 72.1195C82.5723 73.9728 80.6962 74.5927 80.7091 74.8556C80.7219 75.1186 79.93 75.9714 78.9384 76.7538C77.9533 77.5297 76.1311 78.9084 74.8949 79.819C73.6522 80.7232 71.1218 82.0378 69.261 82.7303C66.9044 83.6088 64.271 83.9936 60.5687 84C55.8105 84 54.7738 83.7692 50.5887 81.7556C47.8136 80.4154 44.6135 78.203 42.7012 76.2985C39.9841 73.5924 39.2823 73.1948 38.1941 73.7334C37.4859 74.0861 36.7583 74.6633 36.5844 75.016C36.4041 75.3686 34.743 76.4331 32.8822 77.3822C30.1264 78.7866 28.6068 79.1136 24.6728 79.1328C20.9641 79.1585 19.0968 78.825 16.6244 77.6964C14.8537 76.8948 12.4327 75.3109 11.2416 74.1823C10.0504 73.0537 8.42785 71.1235 7.62945 69.8859C6.83749 68.6482 5.71071 65.9806 5.12478 63.9542C4.5453 61.9278 4.07527 60.049 4.08171 59.786C4.08815 59.5231 4.69339 60.6004 5.4274 62.1908C6.15498 63.7811 7.49424 65.9421 8.4021 67.0002C9.30996 68.0583 11.0935 69.6871 12.3684 70.6169C13.6497 71.5532 16.2831 72.7779 18.234 73.3487C20.1785 73.9194 24.0309 73.5236 26.2458 73.5172C28.6346 73.5108 30.8733 73.1731 32.8822 72.4292C34.743 71.743 37.1639 71.2774 37.8722 70.5464C39.1342 69.251 39.1857 69.251 40.4477 70.4309C41.1559 71.0914 43.036 72.374 44.6329 73.2717C46.2232 74.1695 49.1206 75.3686 51.0716 75.9265C53.0161 76.4909 56.4222 76.9526 58.6371 76.9461C61.0387 76.9397 64.0263 76.4331 66.0416 75.6829C67.9024 74.9967 70.1431 73.6885 71.0317 72.7908C72.1005 71.7006 72.458 71.8439 72.033 71.4207C71.6081 70.9974 70.4104 71.4397 68.5109 72.8184C65.6715 74.8704 65.6682 75.6829 58.6371 75.6829C51.7541 75.6829 50.93 74.9858 46.674 72.8184C43.8216 71.3691 40.7374 68.8116 38.6641 66.5287C36.8999 64.5921 34.8379 61.2139 33.9944 59.5402C33.1574 57.8665 31.7369 54.9308 31.1767 52.5517C30.5136 49.7366 30.1955 46.2496 30.4723 44.1655C30.7041 42.4021 31.5554 39.1136 32.5856 37.177C33.6158 35.2404 36.9708 32.898 38.6641 31.1858C40.3511 29.4801 43.6928 27.101 46.0816 25.8955Z" fill="#F6B49A"/>
<path d="M3.25111 53.2131C3.10946 54.4508 3 53.2965 3 50.6481C3 48.0061 3.10946 46.9929 3.25111 48.4037C3.38632 49.8144 3.38632 51.9755 3.25111 53.2131Z" fill="#F6B49A"/>
<path d="M48.4966 13.4579C50.6795 12.2296 53.4719 10.1927 55.1124 9.73291C56.7529 9.27311 60.5519 8.90405 62.9134 9.02228C66.2209 9.1865 68.1162 9.45946 71.4237 11.1541C73.7852 12.3693 78.3265 15.1904 79.9339 16.8391C81.5479 18.4878 83.1703 21.6122 84.189 23.2346C85.2077 24.8636 85.0439 26.3585 84.8719 26.4504C84.6933 26.5424 83.2843 26.03 81.7364 25.3075C80.1885 24.5915 76.8414 23.5669 74.2946 23.0217C71.7479 22.4831 67.1373 22.0364 64.0416 22.0364C60.9458 22.0364 56.5601 22.4765 54.2846 23.0085C52.0091 23.5472 48.1393 24.9922 45.6852 26.2205C43.2311 27.4423 39.884 29.8004 38.2435 31.4491C36.603 33.0978 34.301 36.1587 33.1235 38.2475C31.8469 40.5202 30.9869 41.5186 31.0002 40.737C31.0068 40.0144 31.3838 37.6498 31.8402 35.4821C32.2967 33.3145 33.6196 30.0631 34.7773 28.2568C35.9415 26.4504 36.894 24.7492 36.9073 24.4799C36.9139 24.2106 38.0847 22.7327 39.5135 21.1956C40.9423 19.6586 42.6556 17.7931 43.3171 17.0509C43.9852 16.3021 46.3136 14.6862 48.4966 13.4579Z" fill="#DD2D68"/>
<path d="M57.0468 1.02291C57.0239 1.05918 56.998 1.08161 57 1H57.0574C57.093 0.924194 57.0817 0.959659 57.0601 1H59C58.479 2.68596 57.2681 5.4208 56.7015 5.95049C56.1283 6.48018 55.6724 7.06154 55.692 7.24241C55.705 7.42328 58.4274 7.56539 61.7425 7.56539C67.3371 7.56539 68.086 7.72688 72.2673 9.82625C75.4391 11.4153 77.9466 13.3532 80.7341 16.3698C82.9159 18.7211 85.7816 22.6486 87.0972 25.0903C88.4193 27.532 90.2755 32.1442 91.2199 35.3417C92.6006 39.9991 92.9588 42.57 92.9979 48.2609C93.0305 52.9635 92.6788 56.7359 91.9689 59.4037C91.3762 61.6258 90.1843 64.8233 89.3246 66.5093C88.4715 68.1953 86.4915 70.9729 84.9284 72.6847C83.0592 74.7388 81.8739 75.5786 81.444 75.1587C81.0142 74.7324 81.698 73.4728 83.4891 71.4057C84.974 69.6874 86.7781 67.123 87.4945 65.7019C88.2174 64.2807 89.3051 61.2254 89.9108 58.9193C90.764 55.6895 90.9529 52.9248 90.7314 46.969C90.5035 40.8324 90.0801 38.1387 88.7059 34.0498C87.7485 31.2076 86.459 28.2878 85.8337 27.5644C85.2085 26.8409 84.6093 25.8203 84.4986 25.3035C84.3879 24.7867 83.6324 23.3462 82.8182 22.0995C82.0041 20.8528 80.0437 18.5144 78.4611 16.8931C76.8785 15.2717 73.6806 12.9462 71.349 11.7254C67.4738 9.6906 66.6402 9.50327 61.521 9.50327C56.2781 9.50327 55.6008 9.66476 50.8008 12.0871C47.9807 13.5082 45.0759 15.2782 44.3465 16.0275C43.617 16.7703 41.7739 18.7341 40.2498 20.3877C38.7258 22.0414 37.4818 23.54 37.4818 23.7144C37.4818 23.8888 36.4854 25.7104 35.274 27.7517C33.9844 29.9092 32.7795 33.0873 32.3822 35.3417C32.011 37.4734 31.516 40.9616 31.2815 43.0933C31.0536 45.2249 31.1839 48.7131 31.5811 50.8448C31.9784 52.9765 33.2484 56.7165 34.4012 59.1583C35.808 62.1297 37.6903 64.7135 40.087 66.9744C42.0539 68.8283 45.2062 71.1215 47.0884 72.0646C48.9706 73.0077 52.1945 74.0477 54.2526 74.3836C56.3107 74.7195 58.8768 74.8616 59.9514 74.7065C61.026 74.5515 62.9343 74.2479 64.1848 74.0283C65.4418 73.8151 67.4934 72.9366 68.7438 72.0904C70.0008 71.2377 71.3881 70.5401 71.8375 70.5466C72.2869 70.5466 72.6516 70.8372 72.6516 71.1925C72.6516 71.5478 71.7723 72.562 70.6977 73.4534C69.6231 74.3383 67.2068 75.5075 65.3246 76.0437C63.4423 76.5798 60.1468 77.0126 57.9975 76.9997C55.6724 76.9868 52.3704 76.386 49.8564 75.5204C47.5313 74.7195 44.0859 72.9818 42.2037 71.6576C38.7975 69.2675 38.7779 69.2611 37.6447 70.5659C37.0194 71.2894 35.1893 72.31 33.5741 72.8397C31.9589 73.3694 29.1779 73.9766 27.3868 74.1898C25.5958 74.3965 22.3719 74.2156 20.2226 73.7764C18.0734 73.3371 15.2142 72.4328 13.8725 71.761C12.5309 71.0956 10.3621 69.4549 9.05948 68.1242C7.7569 66.7935 5.94631 64.0999 5.0345 62.1491C3.71238 59.3133 3.32161 57.2915 3.09365 52.1367C2.84616 46.3877 3.00899 45.1087 4.57209 40.5094C5.536 37.6672 7.69829 33.3263 9.36559 30.8652C11.0394 28.3976 14.0223 24.974 15.9892 23.2558C17.9561 21.5311 21.7727 18.9989 24.456 17.623C27.1458 16.2471 31.3923 14.5095 33.8997 13.7537C36.4072 12.9979 40.3671 12.1969 42.6922 11.9708C45.3234 11.7189 47.7853 11.0277 49.2051 10.1492C50.4621 9.36762 52.4876 7.59769 53.712 6.20887C54.9365 4.82652 56.3302 2.74653 56.8057 1.59026C56.9365 1.27211 57.0095 1.1044 57.0468 1.02291Z" fill="#60423B"/>
<path d="M36.8571 41.952C37.2944 40.6756 38.1689 38.8173 38.7955 37.8187C39.4286 36.8201 40.0682 36 40.2118 36C40.3619 36 40.3227 38.4535 40.1269 41.456C39.8593 45.4042 39.4677 47.1369 38.6976 47.7254C37.8557 48.3735 37.4575 48.3735 36.7918 47.7254C36.3219 47.2757 35.9695 46.3168 36.0021 45.5893C36.0347 44.8619 36.4198 43.2284 36.8571 41.952Z" fill="white"/>
<path d="M83.3134 49.0613C83.8421 46.7863 84.312 43.2019 84.3577 41.0857C84.3968 38.976 84.6253 37.3756 84.8537 37.5409C85.0887 37.6996 85.5129 39.7299 85.8066 42.0446C86.1199 44.5709 86.0481 48.4926 85.6238 51.872C85.2323 54.967 84.312 58.8292 83.5745 60.4693C82.837 62.1094 81.5251 64.1133 80.6571 64.9333C79.7891 65.7534 78.4185 66.6065 77.6092 66.8314C76.7999 67.0562 75.6251 67.0562 74.9985 66.8314C74.372 66.6065 73.8629 66.051 73.876 65.5947C73.8825 65.1383 75.2465 63.28 76.8978 61.4613C78.549 59.6427 80.4548 57.037 81.1205 55.6747C81.7927 54.3123 82.7782 51.3363 83.3134 49.0613Z" fill="white"/>
<path d="M8.7008 34.8502C9.6632 32.9592 11.7246 29.9672 13.2657 28.2122C14.8134 26.4507 16.2765 25.0065 16.5171 25C16.7642 24.9936 17.8697 25.9391 18.9881 27.1048C20.1066 28.2705 21.7648 30.5306 22.6752 32.1367C23.5921 33.7428 25.6924 39.5712 27.3571 45.0889C29.0153 50.6065 31.1157 56.7329 32.0326 58.6887C32.943 60.6444 34.5297 63.2673 35.5506 64.5171C37.3128 66.6607 37.3518 66.8421 36.2919 67.8847C35.6741 68.487 33.8534 69.439 32.2407 70.0024C30.55 70.5917 27.2531 71.0127 24.4374 70.9997C20.6073 70.9868 18.793 70.6241 15.9839 69.3289C14.02 68.4222 11.575 66.7514 10.5541 65.6116C9.53965 64.4783 7.94648 61.9396 7.02309 59.9839C5.83959 57.4711 5.26085 54.9908 5.05926 51.565C4.87068 48.3075 5.13079 45.322 5.8591 42.4984C6.45085 40.18 7.73189 36.7412 8.7008 34.8502Z" fill="#F1B896"/>
<path d="M30.7751 16.7824C33.6826 15.6603 36.6563 14.5916 37.3831 14.4113C38.11 14.2309 39.6695 14.0506 40.8524 14.0105C42.0352 13.9638 43 14.0773 43 14.2643C43 14.4513 42.6167 14.9723 42.1409 15.4332C41.6718 15.8941 39.9999 17.9179 38.4206 19.9417C36.8479 21.9588 34.4293 26.0197 33.0482 28.9586C31.6672 31.8974 30.22 36.259 29.8301 38.6435C29.4468 41.0279 29.1098 44.7883 29.0173 51L26.5591 43.3189C25.2045 39.0976 23.3146 34.2886 22.3498 32.6322C21.3916 30.9757 19.6999 28.7248 18.5898 27.6228C16.6668 25.7058 16.6272 25.5656 17.7307 24.37C18.3651 23.682 20.3674 22.1592 22.1846 20.9769C24.0018 19.8014 27.8675 17.9112 30.7751 16.7824Z" fill="#E22975"/>
<path d="M8.45998 54.3108C8.1881 53.0018 7.98018 50.8722 8.0015 49.5632C8.02283 48.2542 8.16677 47.6506 8.31604 48.2068C8.46532 48.7629 9.19568 50.7501 9.94204 52.6152C10.7097 54.5414 11.1469 56.515 10.955 57.1932C10.6831 58.1699 10.4752 58.2309 9.79277 57.5324C9.33429 57.0644 8.7372 55.6198 8.45998 54.3108Z" fill="white"/>
</g>
<defs>
<clipPath id="clip0_10_7">
<rect width="96" height="96" fill="white"/>
</clipPath>
</defs>
</svg>
